<?xml version="1.0" encoding="utf-8"?>
<!-- Generator: Adobe Illustrator 23.0.1, SVG Export Plug-In . SVG Version: 6.00 Build 0)  -->
<svg version="1.1" id="Layer_1" xmlns="http://www.w3.org/2000/svg" xmlns:xlink="http://www.w3.org/1999/xlink" x="0px" y="0px"
	 viewBox="0 0 234.49 105.25" style="enable-background:new 0 0 234.49 105.25;" xml:space="preserve">
<g>
	<path d="M12.12,85.01c-0.18-2.26-1.39-2.92-2.41-2.92c-1.46,0-2.26,0.95-2.26,2.59c0,4.49,9.21,6.65,9.21,13.81
		c0,4.35-2.92,6.76-7.16,6.76c-4.2,0-6.61-3.36-6.8-7.31L7,97.32c0.18,2.67,1.24,3.98,2.7,3.98c1.57,0,2.63-0.84,2.63-2.41
		c0-5.22-9.21-6.61-9.21-14.17c0-4.2,2.56-6.58,7.01-6.58c3.69,0,5.88,2.67,6.28,6.39L12.12,85.01z"/>
	<path d="M26.36,104.89h-4.38l4.86-26.38h5.63l4.86,26.38h-4.38l-0.8-5.85h-4.97L26.36,104.89z M27.83,95.09h3.65l-1.79-11.33h-0.07
		L27.83,95.09z"/>
	<path d="M44.89,82.45H40.5v-3.94h13.3v3.94h-4.38v22.43h-4.53V82.45z"/>
	<path d="M60.12,84.9c0-3.73,2.19-6.76,6.94-6.76c4.75,0,6.94,3.03,6.94,6.76v13.59c0,3.73-2.19,6.76-6.94,6.76
		c-4.75,0-6.94-3.03-6.94-6.76V84.9z M64.65,98.38c0,1.97,0.58,2.92,2.41,2.92c1.83,0,2.41-0.95,2.41-2.92V85.01
		c0-1.97-0.58-2.92-2.41-2.92c-1.83,0-2.41,0.95-2.41,2.92V98.38z"/>
	<path d="M86.57,104.89h-4.53V78.51h6.36c5.08,0,7.67,2.16,7.67,7.78c0,4.24-1.64,5.96-3.18,6.65l3.84,11.95h-4.6l-3.21-10.92
		c-0.58,0.07-1.53,0.11-2.34,0.11V104.89z M86.57,90.34h1.61c2.45,0,3.36-0.91,3.36-4.06s-0.91-4.06-3.36-4.06h-1.61V90.34z"/>
	<path d="M103.96,78.51h4.53v19.91c0,1.94,0.77,2.89,2.41,2.89c1.64,0,2.41-0.95,2.41-2.89V78.51h4.53v19.73
		c0,4.53-2.63,7.01-6.94,7.01c-4.31,0-6.94-2.49-6.94-7.01V78.51z"/>
	<path d="M134.14,85.01c-0.18-2.26-1.39-2.92-2.41-2.92c-1.46,0-2.26,0.95-2.26,2.59c0,4.49,9.21,6.65,9.21,13.81
		c0,4.35-2.92,6.76-7.16,6.76c-4.2,0-6.61-3.36-6.8-7.31l4.31-0.62c0.18,2.67,1.24,3.98,2.7,3.98c1.57,0,2.63-0.84,2.63-2.41
		c0-5.22-9.21-6.61-9.21-14.17c0-4.2,2.56-6.58,7.01-6.58c3.69,0,5.88,2.67,6.28,6.39L134.14,85.01z"/>
	<path d="M145.75,78.51h4.53v19.91c0,1.94,0.77,2.89,2.41,2.89c1.64,0,2.41-0.95,2.41-2.89V78.51h4.53v19.73
		c0,4.53-2.63,7.01-6.94,7.01c-4.31,0-6.94-2.49-6.94-7.01V78.51z"/>
	<path d="M168.11,82.45v-3.94h11.98v4.31l-8.33,18.12h8.33v3.95h-13.01v-4.31l8.44-18.12H168.11z"/>
	<path d="M187.54,78.51h4.53v19.91c0,1.94,0.77,2.89,2.41,2.89c1.64,0,2.41-0.95,2.41-2.89V78.51h4.53v19.73
		c0,4.53-2.63,7.01-6.94,7.01c-4.31,0-6.94-2.49-6.94-7.01V78.51z"/>
	<path d="M209.24,104.89V78.51h4.53v9.75h0.07l4.75-9.75h4.53l-4.9,9.83l5.52,16.55h-4.6l-3.69-12.28h-0.07l-1.61,2.92v9.35H209.24z
		"/>
	<path d="M229.96,104.89V78.51h4.53v26.38H229.96z"/>
</g>
<g>
	<path d="M40.6,31.17v-5.51c-2.04,2.42-4.23,4.6-6.49,6.49c-0.98-2.34-2.79-5.36-4.3-7.32v2.04h-7.77v5.51h10.94v7.85H22.04v16.38
		l11.25-1.59l0.38,7.7c-10.26,1.81-21.13,3.7-28.08,4.75c-0.08,0.75-0.75,1.13-1.36,1.28l-2.57-9.51c3.4-0.38,7.62-0.91,12.23-1.51
		V40.23H2.57v-7.85h11.32v-5.51H6.79v-1.21l-0.75,0.75C4.68,24.45,1.89,21.51,0,20.23C6.72,14.19,11.47,6.42,14.11,0l10.11,1.74
		c-0.15,0.68-0.75,1.06-1.81,1.13l-0.08,0.15c4.83,3.47,10.49,7.92,13.36,11.17c-1.96,2.64-3.55,4.98-5.13,7.32l-0.75-0.9v3.62
		c7.02-5.89,13.96-16.38,17.06-24l10.11,0.53c-0.23,0.53-0.68,0.98-1.36,1.13c4.08,7.25,11.4,16.83,17.74,21.51
		c-1.74,2.26-3.77,5.58-5.06,8.38c-2.11-1.74-4.23-3.92-6.26-6.34v5.74H40.6z M6.64,56.83c-0.45-3.55-1.74-9.06-3.17-13.21
		l6.11-1.74c1.51,4.15,2.94,9.43,3.4,12.98L6.64,56.83z M28.53,19.25c-2.64-2.79-6.49-6.11-10.04-8.91
		c-1.74,2.94-3.77,5.96-6.04,8.91H28.53z M34.04,44.08c-0.23,0.53-0.91,0.83-1.81,0.83c-0.98,3.09-2.64,7.7-4.08,10.72l-5.58-2.04
		c1.21-3.32,2.72-8.45,3.4-12L34.04,44.08z M68.91,37.36v18.79c0,7.85-2.94,8.91-13.21,8.91c-0.3-2.41-1.28-5.89-2.26-8.15
		c2.57,0.08,5.21,0.08,6.04,0.08c0.83-0.08,1.06-0.3,1.06-0.98V44.98h-9.06v26.19h-8.75V44.98h-8v-7.62H68.91z M60.38,23.47
		c-3.7-4.6-7.02-9.66-9.21-13.81c-2.11,4.23-5.13,9.21-8.75,13.81H60.38z"/>
	<path d="M151.17,26.72h-24.91c6.41,11.55,16.91,22.79,27.93,28.83c-2.26,1.89-5.36,5.51-6.94,8c-9.36-6.19-17.96-15.85-24.6-26.72
		v34.42h-9.66V37.29C106.41,48.38,97.88,57.89,88.3,64c-1.51-2.26-4.6-5.81-6.72-7.7c11.02-6.11,21.36-17.59,27.47-29.59H84.53
		v-8.98h28.45V0.08l11.77,0.6c-0.08,0.83-0.68,1.28-2.11,1.51v15.55h28.53V26.72z"/>
	<path d="M185.96,11.62c2.19,3.4,4.9,8.08,6.11,11.02l-6.26,3.55c-0.75-2.19-2.34-5.51-4-8.45v53.44h-8.83V21.89h-0.08
		c-0.45,5.66-1.66,11.09-4.15,14.87c-5.96-3.62-6.11-3.7-6.26-3.77c2.64-3.92,3.77-11.17,3.85-17.66l6.64,0.98V0l10.79,0.6
		c-0.08,0.75-0.6,1.21-1.96,1.43v11.7L185.96,11.62z M228.07,32h6.41v7.92h-47.02V32h11.62c0.6-2.42,1.21-5.06,1.81-7.77h-8.15v-7.7
		h9.81l1.13-5.96h-13.28V2.94h41.21v7.62h-18.79l-1.21,5.96h16.45V32z M192.68,71.17V44.38h37.06v26.57h-9.28v-2.19h-18.94v2.41
		H192.68z M220.45,52.08h-18.94v8.75h18.94V52.08z M219.09,24.23h-9.06L208.3,32h10.79V24.23z"/>
</g>
</svg>
